<svg width="208" height="208" viewBox="0 0 208 208" fill="none" xmlns="http://www.w3.org/2000/svg">
<path d="M51.8174 73.5955C49.3291 73.1509 47.1189 71.7372 45.6718 69.6648C44.2247 67.5924 43.6589 65.0305 44.0986 62.5414C44.2666 61.6204 44.2511 60.6753 44.0529 59.7603C43.8547 58.8453 43.4777 57.9785 42.9435 57.2096C42.4094 56.4406 41.7287 55.7848 40.9404 55.2797C40.1522 54.7746 39.2719 54.4301 38.3502 54.2661C33.1827 53.2098 29.7296 48.2414 30.6314 43.1836L33.0324 43.5898C32.3661 47.3558 34.958 51.0648 38.8133 51.853C41.2967 52.3023 43.5009 53.7174 44.9431 55.7886C46.3852 57.8597 46.9479 60.4179 46.5077 62.903C46.3408 63.8236 46.3572 64.7682 46.5559 65.6825C46.7547 66.5968 47.1318 67.4629 47.6658 68.2313C48.1998 68.9996 48.8801 69.655 49.6678 70.16C50.4555 70.665 51.335 71.0097 52.2561 71.1742L51.8174 73.5955Z" fill="#777B97"/>
<path d="M74.6728 72.4048C73.3537 71.1766 72.2896 69.7006 71.5413 68.0609C70.793 66.4213 70.3752 64.6502 70.3118 62.849C70.2484 61.0478 70.5407 59.2518 71.1718 57.5636C71.803 55.8754 72.7608 54.3282 73.9903 53.0104C78.0528 48.8341 78.1991 41.4973 73.4337 37.0529C68.0225 31.7716 67.7462 23.0535 72.7553 17.6504L74.5387 19.3079C70.4031 23.7563 70.6631 30.9266 75.1197 35.2898C80.8559 40.6401 80.7341 49.5816 75.7494 54.6963C73.7185 56.8873 72.6395 59.7943 72.7492 62.7798C72.8589 65.7652 74.1482 68.5853 76.3344 70.6213L74.6728 72.4048Z" fill="#777B97"/>
<path d="M99.3202 84.4345C96.8765 80.9702 95.9086 76.6773 96.6293 72.4995C97.3499 68.3217 99.7002 64.6012 103.163 62.1558C106.098 60.0784 108.088 56.9217 108.697 53.3786C109.306 49.8354 108.485 46.1953 106.413 43.257L108.408 41.8555C110.849 45.3226 111.814 49.6163 111.093 53.7944C110.372 57.9726 108.022 61.694 104.561 64.1423C103.105 65.1689 101.867 66.4724 100.915 67.9782C99.9641 69.4839 99.3191 71.1625 99.0172 72.9178C98.7154 74.6732 98.7626 76.4708 99.1561 78.2078C99.5497 79.9449 100.282 81.5873 101.311 83.0411L99.3202 84.4345Z" fill="#777B97"/>
<path d="M160.367 103.223L151.352 163.539C150.896 166.602 149.354 169.4 147.008 171.422C144.663 173.444 141.669 174.557 138.572 174.557H137.926C139.058 174.556 140.177 174.303 141.199 173.817C142.222 173.33 143.124 172.622 143.839 171.744C144.554 170.866 145.065 169.839 145.334 168.739C145.604 167.639 145.625 166.493 145.397 165.384L134.278 111.556C133.847 109.489 132.717 107.634 131.079 106.302C129.441 104.97 127.394 104.243 125.283 104.243H60.393L54.9696 95.3056C54.1509 93.9581 52.9992 92.8441 51.6253 92.0707C50.2514 91.2973 48.7015 90.8905 47.1249 90.8896H44.0618C43.7422 89.541 43.7322 88.1375 44.0324 86.7844C44.3326 85.4313 44.9352 84.1638 45.7951 83.0768C46.655 81.9898 47.7498 81.1116 48.9975 80.5081C50.2452 79.9045 51.6133 79.5913 52.9993 79.5918H68.5302C70.081 79.5925 71.6064 79.9854 72.9645 80.7341C74.3226 81.4827 75.4692 82.5628 76.2977 83.8737L81.8552 92.6852H151.283C152.604 92.6854 153.909 92.9703 155.109 93.5205C156.309 94.0707 157.377 94.8732 158.239 95.8734C159.101 96.8736 159.738 98.0479 160.105 99.3163C160.472 100.585 160.562 101.917 160.367 103.223Z" fill="#18181A"/>
<path d="M137.926 174.558H41.1736C39.0628 174.558 37.0164 173.831 35.3789 172.499C33.7414 171.167 32.6129 169.312 32.1833 167.245L18.6876 101.933C18.412 100.597 18.4372 99.2169 18.7614 97.8924C19.0855 96.5679 19.7005 95.3321 20.5617 94.2749C21.4229 93.2176 22.5087 92.3654 23.7403 91.78C24.9719 91.1946 26.3184 90.8908 27.682 90.8906H47.1251C48.7021 90.8904 50.2525 91.2962 51.6272 92.0689C53.0018 92.8416 54.1544 93.9552 54.9739 95.3025L60.3973 104.24H125.284C127.395 104.24 129.441 104.967 131.079 106.299C132.717 107.631 133.847 109.486 134.278 111.552L145.397 165.385C145.625 166.494 145.604 167.64 145.335 168.74C145.065 169.84 144.554 170.867 143.839 171.745C143.124 172.623 142.222 173.331 141.2 173.818C140.177 174.304 139.059 174.557 137.926 174.558Z" fill="#212226"/>
<path d="M137.926 175.777H41.1734C38.782 175.769 36.4657 174.94 34.6119 173.43C32.7581 171.919 31.479 169.817 30.9887 167.477L17.5012 102.18C17.1887 100.667 17.2171 99.104 17.5842 97.6035C17.9513 96.1029 18.6479 94.703 19.6236 93.5053C20.5992 92.3075 21.8293 91.3421 23.2245 90.679C24.6197 90.016 26.1451 89.6719 27.6899 89.6719H47.1249C48.908 89.6763 50.6603 90.1366 52.2153 91.0091C53.7704 91.8815 55.0765 93.1371 56.0096 94.6566L61.0796 102.993H125.267C127.664 102.999 129.986 103.829 131.844 105.344C133.702 106.859 134.983 108.966 135.472 111.313L146.591 165.141C146.857 166.427 146.832 167.757 146.52 169.033C146.207 170.309 145.615 171.499 144.785 172.517C143.955 173.536 142.909 174.356 141.723 174.92C140.536 175.484 139.239 175.776 137.926 175.777ZM27.6899 92.1094C26.5086 92.1114 25.3425 92.3763 24.2762 92.8848C23.21 93.3933 22.2702 94.1326 21.525 95.0493C20.7799 95.966 20.248 97.0369 19.968 98.1846C19.688 99.3323 19.6669 100.528 19.9062 101.685L33.3734 166.969C33.75 168.761 34.7299 170.369 36.1495 171.526C37.5691 172.682 39.3424 173.316 41.1734 173.323H137.926C138.879 173.323 139.82 173.111 140.68 172.701C141.541 172.292 142.299 171.696 142.9 170.957C143.502 170.217 143.93 169.353 144.156 168.427C144.381 167.501 144.397 166.537 144.202 165.604L133.083 111.776C132.707 109.983 131.727 108.373 130.307 107.216C128.886 106.058 127.112 105.424 125.279 105.418H59.7187L53.9418 95.9078C53.2233 94.7463 52.2199 93.7877 51.0268 93.123C49.8338 92.4582 48.4907 92.1093 47.1249 92.1094H27.6899Z" fill="#777B97"/>
<path d="M138.572 175.776H137.926V173.338C138.879 173.338 139.82 173.126 140.68 172.717C141.541 172.307 142.299 171.711 142.9 170.972C143.502 170.233 143.93 169.369 144.156 168.443C144.381 167.517 144.397 166.552 144.202 165.619L133.083 111.791C132.707 109.998 131.727 108.388 130.307 107.231C128.886 106.074 127.112 105.439 125.279 105.433H59.7187L53.9418 95.9231C53.2253 94.7586 52.2227 93.7968 51.0296 93.1291C49.8364 92.4614 48.4922 92.11 47.125 92.1084H43.095L42.8756 91.17C42.5146 89.6424 42.5039 88.053 42.8443 86.5207C43.1847 84.9885 43.8674 83.5531 44.8413 82.3221C45.8151 81.0911 47.0549 80.0964 48.4677 79.4126C49.8805 78.7287 51.4297 78.3733 52.9993 78.3731H68.5303C70.2877 78.3674 72.0176 78.8099 73.5565 79.6586C75.0955 80.5073 76.3926 81.7343 77.3256 83.2237L82.5296 91.4665H151.283C152.779 91.4671 154.257 91.7902 155.617 92.4137C156.976 93.0373 158.186 93.9467 159.162 95.0799C160.138 96.2131 160.859 97.5435 161.274 98.9804C161.69 100.417 161.79 101.927 161.57 103.406C161.57 103.447 161.773 102.066 152.559 163.722C152.044 167.067 150.352 170.119 147.788 172.328C145.224 174.538 141.956 175.76 138.572 175.776ZM61.0796 103.008H125.267C127.662 103.014 129.982 103.842 131.84 105.353C133.698 106.865 134.98 108.968 135.472 111.312L146.591 165.14C146.979 167.02 146.746 168.975 145.925 170.71C148.201 168.874 149.707 166.252 150.146 163.361L159.161 103.045C159.329 101.912 159.252 100.756 158.934 99.6561C158.615 98.556 158.063 97.5375 157.316 96.6699C156.568 95.8024 155.642 95.1062 154.601 94.6289C153.56 94.1516 152.429 93.9044 151.283 93.904H81.1809L75.2618 84.5237C74.5466 83.3839 73.553 82.445 72.3746 81.7954C71.1962 81.1458 69.8718 80.8069 68.5262 80.8106H52.9953C51.8749 80.8127 50.7676 81.051 49.7456 81.5101C48.7236 81.9692 47.81 82.6387 47.0643 83.4748C46.3186 84.311 45.7577 85.295 45.4181 86.3627C45.0785 87.4303 44.968 88.5576 45.0937 89.6709H47.125C48.908 89.6754 50.6603 90.1357 52.2154 91.0081C53.7704 91.8806 55.0765 93.1362 56.0096 94.6556L61.0796 103.008Z" fill="#777B97"/>
<path d="M55.8848 133.104L69.2318 119.756L73.7526 124.277L60.4056 137.624L55.8848 133.104Z" fill="#777B97"/>
<path d="M55.8848 124.273L60.4056 119.753L73.7526 133.1L69.2318 137.62L55.8848 124.273Z" fill="#777B97"/>
<path d="M86.9541 133.104L100.301 119.756L104.822 124.277L91.4749 137.624L86.9541 133.104Z" fill="#777B97"/>
<path d="M86.9541 124.275L91.4749 119.755L104.822 133.102L100.301 137.622L86.9541 124.275Z" fill="#777B97"/>
<path d="M102.826 153.271C102.473 152.954 93.9901 145.467 80.7545 145.467C67.5188 145.467 59.0323 152.954 58.6788 153.271L57.6348 154.209L62.1807 159.275L63.2248 158.361C68.2213 154.43 74.3945 152.292 80.7524 152.292C87.1103 152.292 93.2836 154.43 98.2801 158.361L99.3241 159.287L103.87 154.209L102.826 153.271Z" fill="#777B97"/>
<path d="M164.953 114.737C180.65 114.737 193.375 102.012 193.375 86.3158C193.375 70.6192 180.65 57.8945 164.953 57.8945C149.257 57.8945 136.532 70.6192 136.532 86.3158C136.532 102.012 149.257 114.737 164.953 114.737Z" fill="#212226"/>
<path d="M164.938 115.955C159.072 115.955 153.338 114.216 148.461 110.957C143.584 107.698 139.783 103.067 137.539 97.6478C135.294 92.2288 134.707 86.2659 135.851 80.5132C136.995 74.7604 139.82 69.4762 143.967 65.3287C148.115 61.1812 153.399 58.3567 159.152 57.2124C164.905 56.0681 170.867 56.6554 176.286 58.9C181.705 61.1447 186.337 64.9458 189.596 69.8227C192.854 74.6997 194.594 80.4334 194.594 86.2988C194.594 94.1642 191.469 101.707 185.908 107.269C180.346 112.831 172.803 115.955 164.938 115.955ZM164.938 59.1167C159.553 59.1167 154.29 60.7135 149.813 63.7053C145.337 66.697 141.848 70.9492 139.789 75.9239C137.729 80.8987 137.191 86.3725 138.243 91.653C139.295 96.9335 141.889 101.783 145.698 105.589C149.507 109.395 154.359 111.986 159.64 113.034C164.921 114.082 170.395 113.54 175.368 111.476C180.341 109.413 184.591 105.921 187.579 101.443C190.567 96.9638 192.16 91.6993 192.156 86.3151C192.151 79.0997 189.281 72.1818 184.177 67.0817C179.073 61.9815 172.153 59.1167 164.938 59.1167Z" fill="#777B97"/>
<path d="M128.643 60.5506C127.871 60.5506 127.115 60.3214 126.472 59.892C125.83 59.4626 125.329 58.8522 125.033 58.1381C124.737 57.424 124.66 56.6382 124.81 55.8801C124.961 55.122 125.333 54.4256 125.88 53.879C126.427 53.3325 127.123 52.9603 127.881 52.8095C128.639 52.6587 129.425 52.7361 130.139 53.0319C130.853 53.3277 131.464 53.8286 131.893 54.4713C132.322 55.114 132.552 55.8695 132.552 56.6425C132.552 57.679 132.14 58.673 131.407 59.406C130.674 60.1389 129.68 60.5506 128.643 60.5506ZM128.643 55.1759C128.352 55.1759 128.068 55.2623 127.826 55.4241C127.584 55.5858 127.396 55.8158 127.284 56.0847C127.173 56.3537 127.144 56.6496 127.201 56.935C127.258 57.2204 127.399 57.4824 127.605 57.6879C127.811 57.8934 128.074 58.0331 128.359 58.0894C128.645 58.1457 128.94 58.116 129.209 58.0041C129.478 57.8921 129.707 57.703 129.868 57.4606C130.029 57.2183 130.115 56.9335 130.114 56.6425C130.114 56.4496 130.076 56.2585 130.002 56.0803C129.928 55.9021 129.82 55.7403 129.683 55.6041C129.547 55.4678 129.384 55.3599 129.206 55.2864C129.028 55.2129 128.836 55.1754 128.643 55.1759Z" fill="#777B97"/>
<path d="M146.961 50.9851C145.9 50.9818 144.864 50.6644 143.984 50.0727C143.103 49.4811 142.418 48.6418 142.014 47.661C141.611 46.6801 141.507 45.6015 141.715 44.5616C141.924 43.5217 142.437 42.567 143.188 41.8181C143.939 41.0691 144.895 40.5596 145.936 40.3539C146.976 40.1481 148.055 40.2554 149.034 40.662C150.014 41.0687 150.851 41.7565 151.44 42.6387C152.029 43.5209 152.343 44.5578 152.343 45.6185C152.343 46.3245 152.203 47.0234 151.932 47.6753C151.661 48.3272 151.265 48.9193 150.765 49.4178C150.265 49.9162 149.671 50.3112 149.019 50.5801C148.366 50.8491 147.667 50.9867 146.961 50.9851ZM146.961 42.6935C146.381 42.6935 145.815 42.8654 145.333 43.1874C144.851 43.5094 144.476 43.9671 144.254 44.5026C144.033 45.038 143.975 45.6272 144.088 46.1955C144.202 46.7638 144.481 47.2857 144.891 47.6952C145.301 48.1046 145.823 48.3833 146.392 48.4958C146.96 48.6084 147.549 48.5498 148.084 48.3275C148.62 48.1052 149.077 47.7291 149.398 47.2469C149.719 46.7647 149.891 46.198 149.89 45.6185C149.889 44.8424 149.58 44.0984 149.03 43.55C148.481 43.0015 147.737 42.6935 146.961 42.6935Z" fill="#777B97"/>
<path d="M20.4053 182.188L25.9888 176.604L27.7121 178.327L22.1286 183.911L20.4053 182.188Z" fill="#777B97"/>
<path d="M32.167 181.621H34.6045V189.519H32.167V181.621Z" fill="#777B97"/>
<path d="M14.625 170.23H22.5225V172.668H14.625V170.23Z" fill="#777B97"/>
<path d="M168.094 93.0929H161.817C161.818 90.9716 162.322 88.8809 163.288 86.9924C164.255 85.1039 165.655 83.4717 167.375 82.2298C167.955 81.8129 168.419 81.2539 168.721 80.6063C169.024 79.9588 169.155 79.2444 169.102 78.5316C169.049 77.8189 168.814 77.1317 168.419 76.5359C168.024 75.9402 167.483 75.4558 166.847 75.1293C166.211 74.8028 165.502 74.6451 164.788 74.6714C164.074 74.6976 163.378 74.9068 162.768 75.2791C162.158 75.6513 161.654 76.1741 161.304 76.7972C160.954 77.4203 160.77 78.1229 160.769 78.8376H154.509C154.513 77.0495 154.977 75.2925 155.855 73.7349C156.733 72.1773 157.997 70.8713 159.524 69.9418C161.052 69.0124 162.792 68.4907 164.579 68.4266C166.366 68.3626 168.14 68.7584 169.73 69.5761C171.32 70.3938 172.674 71.6061 173.661 73.0969C174.649 74.5876 175.237 76.3069 175.369 78.0901C175.502 79.8732 175.175 81.6606 174.418 83.281C173.662 84.9014 172.503 86.3005 171.051 87.3445C170.14 88.0012 169.396 88.8644 168.882 89.8635C168.368 90.8627 168.098 91.9693 168.094 93.0929Z" fill="#00E1FF"/>
<path d="M161.749 97.9434H168.05V104.244H161.749V97.9434Z" fill="#00E1FF"/>
</svg>
