<svg width="208" height="208" viewBox="0 0 208 208" fill="none" xmlns="http://www.w3.org/2000/svg">
<path d="M141.386 44.6183V158.279C141.386 159.748 141.094 161.202 140.526 162.559C139.958 163.916 139.124 165.149 138.074 166.187C137.023 167.226 135.776 168.049 134.403 168.611C133.031 169.173 131.559 169.462 130.074 169.461H76.8776C73.8774 169.461 71.0001 168.283 68.8787 166.186C66.7572 164.089 65.5654 161.245 65.5654 158.279V44.6183C65.5647 41.9245 66.5488 39.3212 68.3365 37.2879C70.1242 35.2547 72.5951 33.9286 75.2938 33.554C76.3852 33.3918 71.6913 33.4404 130.082 33.4404C133.08 33.4415 135.955 34.6197 138.075 36.7158C140.195 38.812 141.386 41.6545 141.386 44.6183Z" fill="black"/>
<path d="M135.473 44.0874V158.795C135.473 160.069 134.961 161.291 134.05 162.192C133.139 163.093 131.904 163.6 130.615 163.601H76.3438C75.0539 163.601 73.8167 163.095 72.9043 162.194C71.9918 161.292 71.4786 160.07 71.4775 158.795V44.0874C71.4775 43.4559 71.6034 42.8306 71.848 42.2472C72.0926 41.6639 72.4511 41.1339 72.9031 40.6875C73.355 40.2412 73.8915 39.8872 74.4819 39.6459C75.0722 39.4046 75.7049 39.2807 76.3438 39.2813H88.0211C88.822 39.2813 89.5901 39.5958 90.1564 40.1556C90.7228 40.7154 91.0409 41.4747 91.0409 42.2664C91.0409 43.0581 91.3591 43.8173 91.9254 44.3771C92.4917 44.937 93.2599 45.2515 94.0608 45.2515H112.881C113.682 45.2504 114.45 44.9355 115.016 44.376C115.582 43.8164 115.9 43.0577 115.901 42.2664C115.901 41.4747 116.22 40.7154 116.786 40.1556C117.352 39.5958 118.12 39.2813 118.921 39.2813H130.615C131.253 39.2813 131.885 39.4056 132.475 39.6472C133.065 39.8888 133.6 40.2428 134.051 40.6892C134.503 41.1355 134.86 41.6654 135.104 42.2485C135.348 42.8316 135.473 43.4565 135.473 44.0874Z" fill="#212226"/>
<path d="M102.648 107.443C113.502 107.443 122.301 98.7449 122.301 88.0154C122.301 77.2859 113.502 68.5879 102.648 68.5879C91.7934 68.5879 82.9941 77.2859 82.9941 88.0154C82.9941 98.7449 91.7934 107.443 102.648 107.443Z" fill="#00E1FF"/>
<path d="M108.52 128.689H96.7807C95.1908 128.689 93.6661 128.065 92.5419 126.954C91.4177 125.842 90.7861 124.335 90.7861 122.763C90.7861 121.192 91.4177 119.685 92.5419 118.573C93.6661 117.462 95.1908 116.838 96.7807 116.838H108.52C110.109 116.838 111.634 117.462 112.758 118.573C113.883 119.685 114.514 121.192 114.514 122.763C114.514 124.335 113.883 125.842 112.758 126.954C111.634 128.065 110.109 128.689 108.52 128.689Z" fill="#00E1FF"/>
<path d="M99.8094 96.4016L92.1572 88.8375L95.4725 85.5603L99.8094 89.8433L110.137 79.6348L113.452 82.9119L99.8094 96.4016Z" fill="#212226"/>
<path d="M130.074 170.677H76.878C73.5527 170.673 70.3649 169.365 68.0135 167.041C65.6622 164.717 64.3393 161.565 64.335 158.278V44.6173C64.3393 41.3307 65.6623 38.1799 68.0138 35.8563C70.3652 33.5326 73.5531 32.2259 76.878 32.2227H130.074C133.4 32.2227 136.59 33.5284 138.942 35.8527C141.294 38.1771 142.616 41.3297 142.617 44.6173V158.278C142.613 161.565 141.29 164.717 138.939 167.041C136.587 169.365 133.399 170.673 130.074 170.677ZM76.878 34.6562C74.2057 34.6583 71.6434 35.7083 69.7534 37.5758C67.8634 39.4433 66.8001 41.9757 66.7968 44.6173V158.278C66.8001 160.92 67.8632 163.453 69.7531 165.321C71.643 167.189 74.2053 168.24 76.878 168.244H130.074C132.747 168.24 135.309 167.189 137.199 165.321C139.089 163.453 140.152 160.92 140.155 158.278V44.6173C140.154 41.9751 139.092 39.4414 137.201 37.5735C135.311 35.7055 132.747 34.6562 130.074 34.6562H76.878Z" fill="#777B97"/>
<path d="M63.4923 99.1744H60.6201C58.4655 99.1744 56.3991 98.3284 54.8756 96.8223C53.352 95.3163 52.4961 93.2737 52.4961 91.1439C52.4961 89.014 53.352 86.9714 54.8756 85.4654C56.3991 83.9594 58.4655 83.1133 60.6201 83.1133H63.4923C65.6469 83.1133 67.7133 83.9594 69.2369 85.4654C70.7604 86.9714 71.6163 89.014 71.6163 91.1439C71.6163 93.2737 70.7604 95.3163 69.2369 96.8223C67.7133 98.3284 65.6469 99.1744 63.4923 99.1744Z" fill="#212226"/>
<path d="M63.4923 115.223H58.1583C56.0358 115.176 54.0163 114.309 52.5321 112.809C51.0479 111.308 50.2168 109.293 50.2168 107.195C50.2168 105.096 51.0479 103.081 52.5321 101.58C54.0163 100.08 56.0358 99.2132 58.1583 99.1661H63.4923C64.5742 99.1421 65.6501 99.3319 66.6568 99.7246C67.6635 100.117 68.5807 100.705 69.3545 101.453C70.1283 102.201 70.7431 103.094 71.1629 104.08C71.5826 105.066 71.7989 106.125 71.7989 107.195C71.7989 108.264 71.5826 109.323 71.1629 110.309C70.7431 111.295 70.1283 112.189 69.3545 112.937C68.5807 113.684 67.6635 114.272 66.6568 114.665C65.6501 115.057 64.5742 115.247 63.4923 115.223Z" fill="#212226"/>
<path d="M63.4923 131.28H58.1583C56.0358 131.233 54.0163 130.366 52.5321 128.866C51.0479 127.365 50.2168 125.35 50.2168 123.251C50.2168 121.153 51.0479 119.137 52.5321 117.637C54.0163 116.136 56.0358 115.27 58.1583 115.223H63.4923C64.5742 115.199 65.6501 115.389 66.6568 115.781C67.6635 116.174 68.5807 116.761 69.3545 117.509C70.1283 118.257 70.7431 119.15 71.1629 120.136C71.5826 121.123 71.7989 122.181 71.7989 123.251C71.7989 124.321 71.5826 125.38 71.1629 126.366C70.7431 127.352 70.1283 128.245 69.3545 128.993C68.5807 129.741 67.6635 130.329 66.6568 130.721C65.6501 131.114 64.5742 131.304 63.4923 131.28Z" fill="#212226"/>
<path d="M63.4923 147.34H60.6201C58.4655 147.34 56.3991 146.494 54.8756 144.988C53.352 143.482 52.4961 141.44 52.4961 139.31C52.4961 137.18 53.352 135.137 54.8756 133.631C56.3991 132.125 58.4655 131.279 60.6201 131.279H63.4923C65.6469 131.279 67.7133 132.125 69.2369 133.631C70.7604 135.137 71.6163 137.18 71.6163 139.31C71.6163 141.44 70.7604 143.482 69.2369 144.988C67.7133 146.494 65.6469 147.34 63.4923 147.34Z" fill="#212226"/>
<path d="M63.4918 100.391H60.6196C58.1385 100.391 55.7591 99.4169 54.0047 97.6827C52.2503 95.9485 51.2646 93.5964 51.2646 91.1438C51.2646 88.6913 52.2503 86.3392 54.0047 84.605C55.7591 82.8708 58.1385 81.8965 60.6196 81.8965H63.4918C65.9729 81.8965 68.3523 82.8708 70.1067 84.605C71.8611 86.3392 72.8467 88.6913 72.8467 91.1438C72.8467 93.5964 71.8611 95.9485 70.1067 97.6827C68.3523 99.4169 65.9729 100.391 63.4918 100.391ZM60.6196 84.33C58.7914 84.33 57.0382 85.0479 55.7454 86.3257C54.4527 87.6036 53.7265 89.3367 53.7265 91.1438C53.7265 92.951 54.4527 94.6841 55.7454 95.9619C57.0382 97.2398 58.7914 97.9576 60.6196 97.9576H63.4918C65.3199 97.9576 67.0732 97.2398 68.3659 95.9619C69.6587 94.6841 70.3849 92.951 70.3849 91.1438C70.3849 89.3367 69.6587 87.6036 68.3659 86.3257C67.0732 85.0479 65.3199 84.33 63.4918 84.33H60.6196Z" fill="#777B97"/>
<path d="M63.493 116.44H58.1591C55.7124 116.389 53.3833 115.393 51.6711 113.665C49.9589 111.936 49 109.614 49 107.195C49 104.776 49.9589 102.453 51.6711 100.725C53.3833 98.9963 55.7124 98 58.1591 97.9493H63.493C64.7378 97.9235 65.9752 98.1436 67.1327 98.5966C68.2903 99.0497 69.3448 99.7266 70.2343 100.588C71.1238 101.449 71.8305 102.477 72.3129 103.611C72.7954 104.746 73.0439 105.964 73.0439 107.195C73.0439 108.425 72.7954 109.644 72.3129 110.778C71.8305 111.913 71.1238 112.94 70.2343 113.802C69.3448 114.663 68.2903 115.34 67.1327 115.793C65.9752 116.246 64.7378 116.466 63.493 116.44ZM58.1714 100.391C56.3729 100.434 54.6628 101.171 53.4063 102.444C52.1497 103.716 51.4464 105.424 51.4464 107.203C51.4464 108.981 52.1497 110.689 53.4063 111.962C54.6628 113.234 56.3729 113.971 58.1714 114.014H63.5053C64.4244 114.037 65.3387 113.877 66.1944 113.545C67.0501 113.212 67.8299 112.714 68.4879 112.079C69.1458 111.444 69.6687 110.686 70.0257 109.849C70.3827 109.011 70.5666 108.112 70.5666 107.203C70.5666 106.294 70.3827 105.394 70.0257 104.557C69.6687 103.719 69.1458 102.961 68.4879 102.326C67.8299 101.691 67.0501 101.193 66.1944 100.861C65.3387 100.529 64.4244 100.369 63.5053 100.391H58.1714Z" fill="#777B97"/>
<path d="M63.493 132.497H58.1591C55.7124 132.446 53.3833 131.45 51.6711 129.721C49.9589 127.993 49 125.67 49 123.251C49 120.832 49.9589 118.51 51.6711 116.781C53.3833 115.053 55.7124 114.057 58.1591 114.006H63.493C64.7378 113.98 65.9752 114.2 67.1327 114.653C68.2903 115.106 69.3448 115.783 70.2343 116.644C71.1238 117.505 71.8305 118.533 72.3129 119.668C72.7954 120.802 73.0439 122.021 73.0439 123.251C73.0439 124.482 72.7954 125.7 72.3129 126.835C71.8305 127.969 71.1238 128.997 70.2343 129.858C69.3448 130.719 68.2903 131.396 67.1327 131.849C65.9752 132.302 64.7378 132.522 63.493 132.497ZM58.1591 116.439C56.3605 116.483 54.6505 117.22 53.3939 118.492C52.1374 119.765 51.4341 121.473 51.4341 123.251C51.4341 125.03 52.1374 126.737 53.3939 128.01C54.6505 129.283 56.3605 130.02 58.1591 130.063H63.493C64.4121 130.085 65.3264 129.925 66.1821 129.593C67.0378 129.261 67.8176 128.762 68.4756 128.128C69.1335 127.493 69.6564 126.735 70.0134 125.897C70.3704 125.06 70.5543 124.16 70.5543 123.251C70.5543 122.342 70.3704 121.443 70.0134 120.605C69.6564 119.768 69.1335 119.009 68.4756 118.375C67.8176 117.74 67.0378 117.242 66.1821 116.909C65.3264 116.577 64.4121 116.417 63.493 116.439H58.1591Z" fill="#777B97"/>
<path d="M63.4918 148.557H60.6196C58.1385 148.557 55.7591 147.583 54.0047 145.849C52.2503 144.114 51.2646 141.762 51.2646 139.31C51.2646 136.857 52.2503 134.505 54.0047 132.771C55.7591 131.037 58.1385 130.062 60.6196 130.062H63.4918C65.9729 130.063 68.3523 131.037 70.1067 132.771C71.8611 134.505 72.8467 136.857 72.8467 139.31C72.8467 141.762 71.8611 144.114 70.1067 145.849C68.3523 147.583 65.9729 148.557 63.4918 148.557ZM60.6196 132.496C58.7914 132.496 57.0382 133.214 55.7454 134.492C54.4527 135.77 53.7265 137.503 53.7265 139.31C53.7265 141.117 54.4527 142.85 55.7454 144.128C57.0382 145.406 58.7914 146.124 60.6196 146.124H63.4918C65.3199 146.124 67.0732 145.406 68.3659 144.128C69.6587 142.85 70.3849 141.117 70.3849 139.31C70.3849 137.503 69.6587 135.77 68.3659 134.492C67.0732 133.214 65.3199 132.496 63.4918 132.496H60.6196Z" fill="#777B97"/>
<path d="M157.868 194L157.781 101.449H154.24C150.832 101.45 147.563 102.79 145.153 105.172C142.743 107.555 141.389 110.787 141.389 114.156V139.302C141.389 139.302 120.304 144.879 120.304 169.454H95.9521C95.9521 169.454 97.7206 178.437 109.279 182.075L106.104 194" fill="#212226"/>
<path d="M107.203 194L104.5 194L107.782 182.862C96.6705 178.847 94.8201 170.078 94.7421 169.697L94.459 168.245H119.077C119.43 155.822 125.183 148.371 130.032 144.246C133.015 141.71 136.443 139.736 140.147 138.422V114.156C140.15 110.465 141.634 106.926 144.274 104.316C146.914 101.705 150.494 100.237 154.228 100.232H159V194H156.538V102.666H154.241C151.159 102.67 148.206 103.882 146.027 106.036C143.849 108.19 142.624 111.11 142.621 114.156V140.243L141.706 140.487C137.973 141.683 134.524 143.615 131.567 146.165C124.912 151.843 121.535 159.687 121.535 169.466V170.682H97.6224C98.6277 173.217 101.602 178.389 109.653 180.928L110.781 181.284L107.203 194Z" fill="#777B97"/>
<path d="M75.6627 23.2554C74.915 23.2546 74.1783 23.0768 73.5144 22.7367C72.8504 22.3967 72.2785 21.9044 71.8465 21.3011C71.4146 20.6978 71.1351 20.0009 71.0315 19.2689C70.9279 18.5369 71.0032 17.791 71.2511 17.0936C71.499 16.3962 71.9122 15.7677 72.4563 15.2606C73.0003 14.7536 73.6594 14.3827 74.3782 14.1791C75.097 13.9754 75.8547 13.945 76.5879 14.0902C77.3211 14.2355 78.0084 14.5522 78.5923 15.014C82.0102 17.7152 80.1064 23.2554 75.6627 23.2554ZM75.4289 16.4335C74.9945 16.4841 74.585 16.6606 74.252 16.9408C73.9189 17.221 73.6772 17.5924 73.5573 18.0081C73.4373 18.4239 73.4446 18.8654 73.5781 19.2771C73.7116 19.6888 73.9653 20.0523 74.3074 20.3216C74.6495 20.591 75.0646 20.7543 75.5004 20.7909C75.9362 20.8275 76.3732 20.7358 76.7563 20.5274C77.1395 20.3189 77.4517 20.003 77.6535 19.6195C77.8554 19.236 77.9379 18.802 77.8907 18.3722C77.8581 18.085 77.7685 17.807 77.627 17.5541C77.4856 17.3012 77.2951 17.0783 77.0665 16.8983C76.8378 16.7182 76.5755 16.5845 76.2945 16.5047C76.0135 16.425 75.7193 16.4008 75.4289 16.4335Z" fill="#777B97"/>
<path d="M54.8637 42.7469C53.9393 42.744 53.0509 42.3923 52.38 41.7637C51.7091 41.1351 51.3063 40.277 51.2539 39.3647C51.2015 38.4524 51.5035 37.5547 52.0982 36.8551C52.6928 36.1555 53.5353 35.7067 54.4534 35.6005C54.9447 35.5436 55.4425 35.5867 55.9162 35.727C56.39 35.8674 56.8298 36.102 57.2084 36.4165C57.5871 36.731 57.8967 37.1187 58.1182 37.5559C58.3397 37.993 58.4684 38.4703 58.4964 38.9584C58.5245 39.4465 58.4512 39.9351 58.2811 40.3942C58.1111 40.8533 57.8479 41.2732 57.5076 41.628C57.1674 41.9828 56.7573 42.2651 56.3027 42.4575C55.848 42.65 55.3583 42.7484 54.8637 42.7469ZM54.7447 38.0218C54.5154 38.0466 54.2986 38.1381 54.1219 38.2848C53.9452 38.4315 53.8166 38.6267 53.7523 38.8457C53.6879 39.0647 53.6908 39.2977 53.7606 39.5151C53.8303 39.7325 53.9638 39.9246 54.1441 40.0669C54.3244 40.2092 54.5433 40.2955 54.7732 40.3146C55.0031 40.3338 55.2336 40.2851 55.4355 40.1747C55.6374 40.0643 55.8016 39.8971 55.9072 39.6943C56.0129 39.4916 56.0553 39.2624 56.029 39.0358C55.994 38.7333 55.8392 38.4569 55.5985 38.2669C55.3579 38.0769 55.0509 37.9888 54.7447 38.0218Z" fill="#777B97"/>
<path d="M57.3926 176.686L62.8984 171.243L64.6389 172.964L59.1331 178.406L57.3926 176.686Z" fill="#777B97"/>
<path d="M51.9111 164.562H59.6987V166.996H51.9111V164.562Z" fill="#777B97"/>
<path d="M68.5029 176.369H70.9648V184.067H68.5029V176.369Z" fill="#777B97"/>
</svg>
