<svg width="24" height="24" viewBox="0 0 24 24" fill="none" xmlns="http://www.w3.org/2000/svg">
<path d="M3.32715 21.6846C3.45589 21.1478 3.99528 20.8168 4.53223 20.9453C4.68129 20.981 4.83777 21 5 21H5.7002C6.25239 21.0001 6.7002 21.4478 6.7002 22C6.7002 22.5522 6.25239 22.9999 5.7002 23H5C4.67979 23 4.36683 22.9625 4.06641 22.8906C3.52939 22.762 3.19865 22.2216 3.32715 21.6846ZM10.3662 21C10.9185 21 11.3662 21.4477 11.3662 22C11.3662 22.5523 10.9185 23 10.3662 23H8.9668C8.41451 23 7.9668 22.5523 7.9668 22C7.9668 21.4477 8.41451 21 8.9668 21H10.3662ZM15.0332 21C15.5855 21 16.0332 21.4477 16.0332 22C16.0332 22.5523 15.5855 23 15.0332 23H13.6338C13.0815 23 12.6338 22.5523 12.6338 22C12.6338 21.4477 13.0815 21 13.6338 21H15.0332ZM19.4678 20.9453C20.0047 20.8168 20.5441 21.1478 20.6729 21.6846C20.8013 22.2216 20.4706 22.762 19.9336 22.8906C19.6332 22.9625 19.3202 23 19 23H18.2998C17.7476 22.9999 17.2998 22.5522 17.2998 22C17.2998 21.4478 17.7476 21.0001 18.2998 21H19C19.1622 21 19.3187 20.981 19.4678 20.9453ZM2 17.2998C2.55222 17.2998 2.99989 17.7476 3 18.2998V19C3 19.1622 3.01904 19.3187 3.05469 19.4678C3.18315 20.0047 2.85224 20.5441 2.31543 20.6729C1.77836 20.8013 1.23796 20.4706 1.10938 19.9336C1.0375 19.6332 1 19.3202 1 19V18.2998C1.00011 17.7476 1.44778 17.2998 2 17.2998ZM22 17.2998C22.5522 17.2998 22.9999 17.7476 23 18.2998V19C23 19.3202 22.9625 19.6332 22.8906 19.9336C22.762 20.4706 22.2216 20.8013 21.6846 20.6729C21.1478 20.5441 20.8168 20.0047 20.9453 19.4678C20.981 19.3187 21 19.1622 21 19V18.2998C21.0001 17.7476 21.4478 17.2998 22 17.2998ZM13.0381 11.5381C13.4659 10.8208 14.5341 10.8208 14.9619 11.5381L17.8496 16.3848C18.2771 17.1027 17.7421 18 16.8867 18H11.1133C10.2579 18 9.72286 17.1027 10.1504 16.3848L13.0381 11.5381ZM2 12.6338C2.55228 12.6338 3 13.0815 3 13.6338V15.0332C3 15.5855 2.55228 16.0332 2 16.0332C1.44772 16.0332 1 15.5855 1 15.0332V13.6338C1 13.0815 1.44772 12.6338 2 12.6338ZM22 12.6338C22.5523 12.6338 23 13.0815 23 13.6338V15.0332C23 15.5855 22.5523 16.0332 22 16.0332C21.4477 16.0332 21 15.5855 21 15.0332V13.6338C21 13.0815 21.4477 12.6338 22 12.6338ZM2 7.9668C2.55228 7.9668 3 8.41451 3 8.9668V10.3662C3 10.9185 2.55228 11.3662 2 11.3662C1.44772 11.3662 1 10.9185 1 10.3662V8.9668C1 8.41451 1.44772 7.9668 2 7.9668ZM22 7.9668C22.5523 7.9668 23 8.41451 23 8.9668V10.3662C23 10.9185 22.5523 11.3662 22 11.3662C21.4477 11.3662 21 10.9185 21 10.3662V8.9668C21 8.41451 21.4477 7.9668 22 7.9668ZM9 7C10.1046 7 11 7.89543 11 9C11 10.1046 10.1046 11 9 11C7.89543 11 7 10.1046 7 9C7 7.89543 7.89543 7 9 7ZM1.10938 4.06641C1.23796 3.52939 1.77836 3.19865 2.31543 3.32715C2.85224 3.45589 3.18315 3.99528 3.05469 4.53223C3.01904 4.68129 3 4.83777 3 5V5.7002C2.99989 6.25239 2.55222 6.7002 2 6.7002C1.44778 6.7002 1.00011 6.25239 1 5.7002V5C1 4.67979 1.0375 4.36683 1.10938 4.06641ZM21.6846 3.32715C22.2216 3.19865 22.762 3.52939 22.8906 4.06641C22.9625 4.36683 23 4.67979 23 5V5.7002C22.9999 6.25239 22.5522 6.7002 22 6.7002C21.4478 6.7002 21.0001 6.25239 21 5.7002V5C21 4.83777 20.981 4.68129 20.9453 4.53223C20.8168 3.99528 21.1478 3.45589 21.6846 3.32715ZM5.7002 1C6.25239 1.00011 6.7002 1.44778 6.7002 2C6.7002 2.55222 6.25239 2.99989 5.7002 3H5C4.83777 3 4.68129 3.01904 4.53223 3.05469C3.99528 3.18315 3.45589 2.85224 3.32715 2.31543C3.19865 1.77836 3.52939 1.23796 4.06641 1.10938C4.36683 1.0375 4.67979 1 5 1H5.7002ZM19 1C19.3202 1 19.6332 1.0375 19.9336 1.10938C20.4706 1.23796 20.8013 1.77836 20.6729 2.31543C20.5441 2.85224 20.0047 3.18315 19.4678 3.05469C19.3187 3.01904 19.1622 3 19 3H18.2998C17.7476 2.99989 17.2998 2.55222 17.2998 2C17.2998 1.44778 17.7476 1.00011 18.2998 1H19ZM10.3662 1C10.9185 1 11.3662 1.44772 11.3662 2C11.3662 2.55228 10.9185 3 10.3662 3H8.9668C8.41451 3 7.9668 2.55228 7.9668 2C7.9668 1.44772 8.41451 1 8.9668 1H10.3662ZM15.0332 1C15.5855 1 16.0332 1.44772 16.0332 2C16.0332 2.55228 15.5855 3 15.0332 3H13.6338C13.0815 3 12.6338 2.55228 12.6338 2C12.6338 1.44772 13.0815 1 13.6338 1H15.0332Z" fill="white"/>
</svg>
