<svg width="24" height="24" viewBox="0 0 24 24" fill="none" xmlns="http://www.w3.org/2000/svg">
<path d="M12 1C18.0751 1 23 5.92487 23 12C23 18.0751 18.0751 23 12 23C5.92487 23 1 18.0751 1 12C1 5.92487 5.92487 1 12 1ZM12 3C7.02944 3 3 7.02944 3 12C3 16.9706 7.02944 21 12 21C16.9706 21 21 16.9706 21 12C21 7.02944 16.9706 3 12 3ZM12.293 8.29297C12.6835 7.90244 13.3165 7.90244 13.707 8.29297L16.707 11.293C17.0976 11.6835 17.0976 12.3165 16.707 12.707L13.707 15.707C13.3165 16.0976 12.6835 16.0976 12.293 15.707C11.9024 15.3165 11.9024 14.6835 12.293 14.293L13.5859 13H8C7.44772 13 7 12.5523 7 12C7 11.4477 7.44772 11 8 11H13.5859L12.293 9.70703C11.9024 9.31651 11.9024 8.68349 12.293 8.29297Z" fill="white"/>
</svg>
