<svg width="24" height="24" viewBox="0 0 24 24" fill="none" xmlns="http://www.w3.org/2000/svg">
<path d="M16 7H8C7.73478 7 7.48043 7.10536 7.29289 7.29289C7.10536 7.48043 7 7.73478 7 8V10C7 10.2652 7.10536 10.5196 7.29289 10.7071C7.48043 10.8946 7.73478 11 8 11C8.26522 11 8.51957 10.8946 8.70711 10.7071C8.89464 10.5196 9 10.2652 9 10V9H11V15H10C9.73478 15 9.48043 15.1054 9.29289 15.2929C9.10536 15.4804 9 15.7348 9 16C9 16.2652 9.10536 16.5196 9.29289 16.7071C9.48043 16.8946 9.73478 17 10 17H14C14.2652 17 14.5196 16.8946 14.7071 16.7071C14.8946 16.5196 15 16.2652 15 16C15 15.7348 14.8946 15.4804 14.7071 15.2929C14.5196 15.1054 14.2652 15 14 15H13V9H15V10C15 10.2652 15.1054 10.5196 15.2929 10.7071C15.4804 10.8946 15.7348 11 16 11C16.2652 11 16.5196 10.8946 16.7071 10.7071C16.8946 10.5196 17 10.2652 17 10V8C17 7.73478 16.8946 7.48043 16.7071 7.29289C16.5196 7.10536 16.2652 7 16 7Z" fill="white"/>
<path d="M18 1H6C4.6744 1.00156 3.40353 1.52885 2.46619 2.46619C1.52885 3.40353 1.00156 4.6744 1 6V18C1.00156 19.3256 1.52885 20.5965 2.46619 21.5338C3.40353 22.4712 4.6744 22.9984 6 23H18C19.3256 22.9984 20.5965 22.4712 21.5338 21.5338C22.4712 20.5965 22.9984 19.3256 23 18V6C22.9984 4.6744 22.4712 3.40353 21.5338 2.46619C20.5965 1.52885 19.3256 1.00156 18 1ZM21 18C20.9991 18.7954 20.6828 19.5579 20.1204 20.1204C19.5579 20.6828 18.7954 20.9991 18 21H6C5.20462 20.9991 4.44206 20.6828 3.87964 20.1204C3.31722 19.5579 3.00087 18.7954 3 18V6C3.00087 5.20462 3.31722 4.44206 3.87964 3.87964C4.44206 3.31722 5.20462 3.00087 6 3H18C18.7954 3.00087 19.5579 3.31722 20.1204 3.87964C20.6828 4.44206 20.9991 5.20462 21 6V18Z" fill="white"/>
</svg>
