<svg width="24" height="24" viewBox="0 0 24 24" fill="none" xmlns="http://www.w3.org/2000/svg">
<path d="M12 1C18.0751 1 23 5.92487 23 12C23 18.0751 18.0751 23 12 23C5.92487 23 1 18.0751 1 12C1 11.4477 1.44772 11 2 11C2.55228 11 3 11.4477 3 12C3 16.9706 7.02944 21 12 21C16.9706 21 21 16.9706 21 12C21 7.02944 16.9706 3 12 3C9.85834 3 7.89346 3.75004 6.34766 5H8C8.55228 5 9 5.44772 9 6C9 6.55228 8.55228 7 8 7H3.99902C3.44685 6.99987 2.99902 6.5522 2.99902 6V2C2.99902 1.4478 3.44685 1.00013 3.99902 1C4.55131 1 4.99902 1.44772 4.99902 2V3.51562C6.90052 1.945 9.33992 1 12 1Z" fill="white"/>
</svg>
