<svg width="24" height="24" viewBox="0 0 24 24" fill="none" xmlns="http://www.w3.org/2000/svg">
<path d="M12 1C18.0751 1 23 5.92487 23 12V19C23 21.2091 21.2091 23 19 23H12C5.92487 23 1 18.0751 1 12C1 5.92487 5.92487 1 12 1ZM12 3C7.02944 3 3 7.02944 3 12C3 16.9706 7.02944 21 12 21H19C20.1046 21 21 20.1046 21 19V12C21 7.02944 16.9706 3 12 3ZM11.9971 8C12.5493 8.00004 12.9971 8.44774 12.9971 9V10.9971H15C15.5523 10.9971 16 11.4448 16 11.9971C16 12.5493 15.5523 12.9971 15 12.9971H12.9971V15C12.9971 15.5523 12.5493 16 11.9971 16C11.4448 16 10.9971 15.5523 10.9971 15V12.9971H9C8.44774 12.9971 8.00004 12.5493 8 11.9971C8 11.4448 8.44772 10.9971 9 10.9971H10.9971V9C10.9971 8.44772 11.4448 8 11.9971 8Z" fill="white"/>
</svg>
