<svg width="24" height="24" viewBox="0 0 24 24" fill="none" xmlns="http://www.w3.org/2000/svg">
<path d="M9.5 1C13.1508 1 16.263 3.30192 17.4668 6.5332C20.6966 7.73663 23 10.8469 23 14.499C23 19.1934 19.1944 22.999 14.5 22.999C10.8949 22.999 7.87143 20.5739 6.62402 17.5C3.34513 16.3211 1 13.1849 1 9.5C1 4.80558 4.80558 1 9.5 1ZM11.375 17.7891C10.7715 17.925 10.1445 18 9.5 18C9.37728 18 9.25525 17.9954 9.13379 17.9902C10.318 19.7696 12.3001 20.999 14.5 20.999C14.5274 20.999 14.5547 20.9964 14.582 20.9961L11.375 17.7891ZM14.7598 16.1738C14.3496 16.4976 13.9096 16.7846 13.4434 17.0293L16.9385 20.5244C17.4372 20.3224 17.9048 20.0604 18.333 19.7471L14.7598 16.1738ZM17.0293 13.4434C16.7846 13.9096 16.4976 14.3496 16.1738 14.7598L19.7471 18.333C20.0605 17.9048 20.3223 17.4372 20.5244 16.9385L17.0293 13.4434ZM9.5 3C5.91015 3 3 5.91015 3 9.5C3 13.0899 5.91015 16 9.5 16C13.0899 16 16 13.0899 16 9.5C16 5.91015 13.0899 3 9.5 3ZM17.9844 9.01074C17.9936 9.17269 18 9.33575 18 9.5C18 10.1445 17.925 10.7715 17.7891 11.375L20.9971 14.583C20.9974 14.555 21 14.5271 21 14.499C21 12.1923 19.7978 10.1647 17.9844 9.01074Z" fill="white"/>
</svg>
