<svg width="24" height="24" viewBox="0 0 24 24" fill="none" xmlns="http://www.w3.org/2000/svg">
<path d="M8.5 5C8.89856 5 9.25949 5.23685 9.41797 5.60254L13.9678 16.1025L15.918 20.6025C16.1374 21.1092 15.9041 21.6984 15.3975 21.918C14.8908 22.1373 14.3016 21.9041 14.082 21.3975L12.3936 17.5H4.60645L2.91797 21.3975C2.69841 21.9041 2.10922 22.1374 1.60254 21.918C1.09593 21.6984 0.862672 21.1092 1.08203 20.6025L3.03223 16.1025L7.58203 5.60254C7.7405 5.23685 8.10146 5.00003 8.5 5ZM5.47266 15.5H11.5273L8.5 8.51465L5.47266 15.5ZM18.5039 2C19.0562 2 19.5039 2.44772 19.5039 3V5.49512H21.999C22.5513 5.49512 22.999 5.94283 22.999 6.49512C22.999 7.04735 22.5513 7.49512 21.999 7.49512H19.5039V10C19.5039 10.5523 19.0562 11 18.5039 11C17.9519 10.9997 17.5039 10.5521 17.5039 10V7.49512H14.999C14.447 7.49486 13.9991 7.04719 13.999 6.49512C13.999 5.94299 14.447 5.49538 14.999 5.49512H17.5039V3C17.5039 2.44791 17.9519 2.00032 18.5039 2Z" fill="white"/>
</svg>
