<svg width="24" height="24" viewBox="0 0 24 24" fill="none" xmlns="http://www.w3.org/2000/svg">
<path d="M19 1C21.2091 1 23 2.79086 23 5V19C23 21.2091 21.2091 23 19 23H5C2.79086 23 1 21.2091 1 19V5C1 2.79086 2.79086 1 5 1H19ZM5 3C3.89543 3 3 3.89543 3 5V19C3 20.1046 3.89543 21 5 21H19C20.1046 21 21 20.1046 21 19V5C21 3.89543 20.1046 3 19 3H5ZM12 6C12.3952 6 12.7536 6.23262 12.9141 6.59375L15.7139 12.8936L16.9141 15.5938C17.1384 16.0984 16.9109 16.6898 16.4062 16.9141C15.9016 17.1384 15.3102 16.9109 15.0859 16.4062L14.1494 14.2998H9.85059L8.91406 16.4062C8.68976 16.9109 8.09843 17.1384 7.59375 16.9141C7.08907 16.6898 6.86163 16.0984 7.08594 15.5938L8.28613 12.8936L11.0859 6.59375L11.1553 6.46484C11.3367 6.17828 11.6541 6 12 6ZM10.7393 12.2998H13.2607L12 9.46289L10.7393 12.2998Z" fill="white"/>
</svg>
