<svg width="24" height="24" viewBox="0 0 24 24" fill="none" xmlns="http://www.w3.org/2000/svg">
<path d="M16 1C19.866 1 23 4.13401 23 8C23 10.9748 21.1433 13.5138 18.5264 14.5273C17.8164 16.3582 16.3594 17.8155 14.5273 18.5254C13.5141 21.1408 10.9762 22.998 8 22.998C4.13401 22.998 1 19.864 1 15.998C1.00016 13.0224 2.85673 10.4831 5.47168 9.46973C6.18211 7.63737 7.64105 6.17925 9.47266 5.46973C10.4871 2.85455 13.0264 1 16 1ZM11.999 18.9971C8.13348 18.9965 5 15.8637 5 11.998V11.9971C3.78503 12.9098 3.00012 14.3632 3 15.998C3 18.7595 5.23858 20.998 8 20.998C9.63491 20.998 11.0862 20.2119 11.999 18.9971ZM9 7.99707C7.78503 8.90981 7.00012 10.3632 7 11.998C7 14.7595 9.23858 16.998 12 16.998C13.6343 16.998 15.0862 16.2131 15.999 14.999C12.1335 14.9985 9 11.8657 9 8V7.99707ZM16 3C13.2386 3 11 5.23858 11 8C11 10.7614 13.2386 13 16 13C18.7614 13 21 10.7614 21 8C21 5.23858 18.7614 3 16 3Z" fill="white"/>
</svg>
