<svg width="24" height="24" viewBox="0 0 24 24" fill="none" xmlns="http://www.w3.org/2000/svg">
<path d="M12.1807 1.42676C12.431 1.06943 12.8846 0.91472 13.3008 1.0459C13.7169 1.17712 13.9998 1.56372 14 2V9.32227L18.3711 11.0713C18.6543 11.1846 18.8706 11.4216 18.958 11.7139C19.0452 12.0063 18.9941 12.3232 18.8193 12.5732L11.8193 22.5732C11.5691 22.9308 11.1155 23.0853 10.6992 22.9541C10.283 22.8229 10 22.4365 10 22V14.6768L5.62891 12.9287C5.34554 12.8154 5.12933 12.5785 5.04199 12.2861C4.95487 11.9937 5.00572 11.6768 5.18066 11.4268L12.1807 1.42676ZM7.54199 11.5391L11.3711 13.0713C11.7506 13.2231 11.9999 13.5913 12 14V18.8271L16.457 12.46L12.6289 10.9287C12.2492 10.7768 12 10.4089 12 10V5.17188L7.54199 11.5391Z" fill="white"/>
</svg>
