<svg width="24" height="24" viewBox="0 0 24 24" fill="none" xmlns="http://www.w3.org/2000/svg">
<path d="M12 1C18.0775 1 23 5.93926 23 12.0264C23 13.4137 22.7815 14.5302 22.332 15.4014C21.8694 16.2981 21.1907 16.8778 20.3975 17.2129C19.6319 17.5362 18.8023 17.6146 18.0332 17.6035C17.2639 17.5924 16.4751 17.4888 15.7852 17.3994C14.9455 17.2907 14.283 17.2095 13.7617 17.2432C13.3748 17.2682 13.2199 17.3466 13.1523 17.4072L13.1084 17.459C13.1074 17.4606 13.1077 17.4571 13.1074 17.4629C13.1069 17.4759 13.1087 17.5179 13.1357 17.5928C13.1938 17.7534 13.3304 17.9597 13.5244 18.1543C14.5672 19.1998 14.5672 20.8939 13.5244 21.9395C12.8752 22.5903 11.9546 23.0457 10.9375 22.9961L10.7324 22.9795C5.25192 22.3485 1.00012 17.6843 1 12.0264C1 5.93927 5.92241 1 12 1ZM12 3C7.03189 3 3 7.03892 3 12.0264C3.00012 16.6606 6.48237 20.4775 10.9609 20.9932C11.3325 21.0359 11.7551 20.8814 12.1084 20.5273C12.3726 20.2625 12.3726 19.8323 12.1084 19.5674C11.7797 19.2378 11.4422 18.7907 11.2549 18.2725C11.0621 17.7387 11.0066 17.0441 11.415 16.3945L11.5215 16.2402C12.0717 15.503 12.9191 15.2932 13.6328 15.2471C14.3888 15.1982 15.2645 15.3153 16.042 15.416C16.7538 15.5082 17.4268 15.5943 18.0615 15.6035C18.6963 15.6127 19.2136 15.5423 19.6191 15.3711C19.9969 15.2116 20.3142 14.9505 20.5547 14.4844C20.8083 13.9927 21 13.2237 21 12.0264C21 7.03892 16.9681 3 12 3ZM6.5 10.0195C7.32833 10.0195 7.99985 10.693 8 11.5234C8 12.354 7.32843 13.0273 6.5 13.0273C5.67157 13.0273 5 12.354 5 11.5234C5.00015 10.693 5.67167 10.0195 6.5 10.0195ZM17.5 10.0195C18.3283 10.0195 18.9998 10.693 19 11.5234C19 12.354 18.3284 13.0273 17.5 13.0273C16.6716 13.0273 16 12.354 16 11.5234C16.0002 10.693 16.6717 10.0195 17.5 10.0195ZM9.58496 5.50781C10.4134 5.50781 11.085 6.18113 11.085 7.01172C11.085 7.8423 10.4134 8.51562 9.58496 8.51562C8.75656 8.5156 8.08496 7.84229 8.08496 7.01172C8.08497 6.18114 8.75656 5.50783 9.58496 5.50781ZM14.5 5.50781C15.3283 5.50781 15.9999 6.18124 16 7.01172C16 7.84231 15.3284 8.51562 14.5 8.51562C13.6716 8.51562 13 7.84231 13 7.01172C13.0001 6.18124 13.6717 5.50781 14.5 5.50781Z" fill="white"/>
</svg>
