<svg width="24" height="24" viewBox="0 0 24 24" fill="none" xmlns="http://www.w3.org/2000/svg">
<path d="M19 1C21.2091 1 23 2.79086 23 5V19C23 21.2091 21.2091 23 19 23H5C2.79086 23 1 21.2091 1 19V5C1 2.79086 2.79086 1 5 1H19ZM5 3C3.89543 3 3 3.89543 3 5V19C3 20.1046 3.89543 21 5 21H19C20.1046 21 21 20.1046 21 19V5C21 3.89543 20.1046 3 19 3H5ZM13.0381 11.5381C13.4659 10.8208 14.5341 10.8208 14.9619 11.5381L17.8496 16.3848C18.2771 17.1027 17.7421 18 16.8867 18H11.1133C10.2579 18 9.72286 17.1027 10.1504 16.3848L13.0381 11.5381ZM9 7C10.1046 7 11 7.89543 11 9C11 10.1046 10.1046 11 9 11C7.89543 11 7 10.1046 7 9C7 7.89543 7.89543 7 9 7Z" fill="white"/>
</svg>
