<svg width="24" height="24" viewBox="0 0 24 24" fill="none" xmlns="http://www.w3.org/2000/svg">
<path d="M12 4H18C19.3256 4.00156 20.5968 4.52848 21.5342 5.46582C22.4715 6.40316 22.9984 7.6744 23 9V18C22.9984 19.3256 22.4715 20.5968 21.5342 21.5342L21.3545 21.7051C20.4377 22.5353 19.2427 22.9985 18 23H6C4.75726 22.9985 3.56233 22.5353 2.64551 21.7051L2.46582 21.5342C1.52848 20.5968 1.00156 19.3256 1 18V6C1.00156 4.6744 1.52848 3.40316 2.46582 2.46582C3.40316 1.52848 4.6744 1.00156 6 1H11L12 4ZM5.70605 3.01465C5.01891 3.0835 4.37344 3.38828 3.88086 3.88086C3.31811 4.44361 3.00104 5.20611 3 6.00195V17.998L3.01465 18.2939C3.0835 18.9811 3.38828 19.6266 3.88086 20.1191C4.44361 20.6819 5.20611 20.999 6.00195 21H17.998C18.7939 20.999 19.5564 20.6819 20.1191 20.1191C20.6814 19.5568 20.9984 18.7951 21 18V9.00195C20.999 8.20611 20.6819 7.44361 20.1191 6.88086C19.6266 6.38828 18.9811 6.0835 18.2939 6.01465L17.998 6H10.5586L10.1025 4.63281L9.55859 3H6.00195L5.70605 3.01465Z" fill="white"/>
</svg>
