<svg width="24" height="24" viewBox="0 0 24 24" fill="none" xmlns="http://www.w3.org/2000/svg">
<path d="M9.77441 21.582C10.1654 21.582 10.4834 21.9 10.4834 22.291C10.4834 22.682 10.1654 23 9.77441 23C9.38347 22.9999 9.06543 22.682 9.06543 22.291C9.06543 21.9001 9.38347 21.5821 9.77441 21.582ZM14.2256 21.582C14.6165 21.5821 14.9346 21.9001 14.9346 22.291C14.9346 22.682 14.6165 22.9999 14.2256 23C13.8346 23 13.5166 22.682 13.5166 22.291C13.5166 21.9 13.8346 21.582 14.2256 21.582ZM5.76562 17.0234C6.43478 17.0235 6.97747 17.5662 6.97754 18.2354C6.97754 18.9046 6.43482 19.4472 5.76562 19.4473C5.09641 19.4473 4.55371 18.9046 4.55371 18.2354C4.55378 17.5662 5.09646 17.0234 5.76562 17.0234ZM9.77441 17.0234C10.4403 17.0235 10.982 17.5652 10.9863 18.2354C10.9863 18.9056 10.4446 19.4472 9.77441 19.4473C9.1041 19.4473 8.5625 18.9057 8.5625 18.2354C8.56257 17.5651 9.10415 17.0234 9.77441 17.0234ZM14.2246 17.0234C14.8949 17.0234 15.4365 17.5651 15.4365 18.2354C15.4365 18.9057 14.8949 19.4473 14.2246 19.4473C13.5545 19.447 13.0137 18.9055 13.0137 18.2354C13.0137 17.5653 13.5546 17.0237 14.2246 17.0234ZM18.2354 17.0234C18.9045 17.0234 19.4472 17.5662 19.4473 18.2354C19.4473 18.9046 18.9046 19.4473 18.2354 19.4473C17.5662 19.4472 17.0234 18.9045 17.0234 18.2354C17.0235 17.5662 17.5662 17.0235 18.2354 17.0234ZM9.82227 12.4043C10.8284 12.4043 11.6445 13.2204 11.6445 14.2266C11.6445 15.2327 10.8284 16.0488 9.82227 16.0488C8.81609 16.0488 8.00004 15.2327 8 14.2266C8 13.2204 8.81607 12.4043 9.82227 12.4043ZM14.1777 12.4043C15.1839 12.4043 16 13.2204 16 14.2266C16 15.2327 15.1839 16.0488 14.1777 16.0488C13.1718 16.0486 12.3565 15.2326 12.3564 14.2266C12.3564 13.2205 13.1717 12.4045 14.1777 12.4043ZM5.76562 13.0166C6.43588 13.0166 6.97747 13.5583 6.97754 14.2285C6.97754 14.8988 6.43592 15.4404 5.76562 15.4404C5.09531 15.4404 4.55371 14.8988 4.55371 14.2285C4.55378 13.5583 5.09536 13.0166 5.76562 13.0166ZM18.2354 13.0166C18.9013 13.0166 19.4429 13.5583 19.4473 14.2285C19.4473 14.8988 18.9057 15.4404 18.2354 15.4404C17.5651 15.4404 17.0234 14.8988 17.0234 14.2285C17.0235 13.5583 17.5651 13.0167 18.2354 13.0166ZM1.70898 13.5186C2.1 13.5186 2.41797 13.8365 2.41797 14.2275C2.41779 14.6184 2.09989 14.9365 1.70898 14.9365C1.31808 14.9365 1.00018 14.6184 1 14.2275C1 13.8365 1.31797 13.5186 1.70898 13.5186ZM22.291 13.5186C22.682 13.5186 23 13.8365 23 14.2275C22.9998 14.6184 22.6819 14.9365 22.291 14.9365C21.9001 14.9365 21.5822 14.6184 21.582 14.2275C21.582 13.8365 21.9 13.5186 22.291 13.5186ZM9.82227 7.9541C10.8283 7.95414 11.6444 8.76934 11.6445 9.77539C11.6445 10.7816 10.8284 11.5976 9.82227 11.5977C8.81607 11.5977 8 10.7816 8 9.77539C8.00014 8.76932 8.81616 7.9541 9.82227 7.9541ZM14.1777 7.9541C15.1838 7.9541 15.9999 8.76932 16 9.77539C16 10.7816 15.1839 11.5977 14.1777 11.5977C13.1717 11.5974 12.3564 10.7814 12.3564 9.77539C12.3566 8.76946 13.1718 7.95433 14.1777 7.9541ZM5.76562 8.5625C6.43592 8.56252 6.97754 9.10411 6.97754 9.77441C6.97743 10.4446 6.43586 10.9863 5.76562 10.9863C5.09538 10.9863 4.55382 10.4446 4.55371 9.77441C4.55371 9.1041 5.09531 8.5625 5.76562 8.5625ZM18.2354 8.5625C18.9014 8.5625 19.443 9.1041 19.4473 9.77441C19.4472 10.4446 18.9056 10.9863 18.2354 10.9863C17.5652 10.9863 17.0235 10.4446 17.0234 9.77441C17.0234 9.10415 17.5651 8.56257 18.2354 8.5625ZM22.291 9.06348C22.6819 9.06348 22.9998 9.38159 23 9.77246C23 10.1635 22.682 10.4814 22.291 10.4814C21.9 10.4814 21.582 10.1635 21.582 9.77246C21.5822 9.38159 21.9001 9.06348 22.291 9.06348ZM1.70898 9.06348C2.09988 9.06348 2.41777 9.38161 2.41797 9.77246C2.41797 10.1635 2.1 10.4775 1.70898 10.4775C1.31798 10.4775 1.00001 10.1596 1 9.76855C1 9.37754 1.31797 9.05918 1.70898 9.06348ZM5.68848 4.55176C6.35875 4.55176 6.90032 5.09342 6.90039 5.76367C6.90039 6.43398 6.35879 6.97559 5.68848 6.97559C5.01822 6.97552 4.47656 6.43394 4.47656 5.76367C4.47663 5.09346 5.01827 4.55183 5.68848 4.55176ZM9.77441 4.55176C10.4446 4.55186 10.9863 5.09348 10.9863 5.76367C10.9863 6.43392 10.4446 6.97548 9.77441 6.97559C9.1041 6.97559 8.5625 6.43398 8.5625 5.76367C8.56257 5.09772 9.10415 4.55176 9.77441 4.55176ZM14.2246 4.55176C14.8949 4.55176 15.4365 5.09342 15.4365 5.76367C15.4365 6.43398 14.8949 6.97559 14.2246 6.97559C13.5588 6.97534 13.018 6.43383 13.0137 5.76367C13.0137 5.09357 13.5546 4.552 14.2246 4.55176ZM18.0156 4.55176C18.6846 4.55195 19.2265 5.09464 19.2266 5.76367C19.2266 6.43277 18.6847 6.97539 18.0156 6.97559C17.3464 6.97559 16.8037 6.43289 16.8037 5.76367C16.8038 5.09452 17.3465 4.55176 18.0156 4.55176ZM9.77441 1C10.1654 1 10.4834 1.31797 10.4834 1.70898C10.4834 2.1 10.1654 2.41797 9.77441 2.41797C9.38347 2.41788 9.06543 2.09995 9.06543 1.70898C9.06543 1.31802 9.38347 1.00009 9.77441 1ZM14.2256 1C14.6208 1.00009 14.9346 1.31802 14.9346 1.70898C14.9346 2.09995 14.6165 2.41788 14.2256 2.41797C13.8346 2.41797 13.5166 2.1 13.5166 1.70898C13.5166 1.31797 13.8303 1 14.2256 1Z" fill="white"/>
</svg>
